<?xml version="1.0" encoding="UTF-8"?>
<svg id="Laag_1" data-name="Laag 1" xmlns="http://www.w3.org/2000/svg" viewBox="0 0 13.68 7.97">
  <defs>
    <style>
      .cls-1 {
        fill: #000;
        stroke-width: 0px;
      }
    </style>
  </defs>
  <path class="cls-1" d="M2.47,7.97c-.22,0-.49-.01-.79-.04-.3-.03-.6-.07-.89-.13-.29-.06-.55-.14-.76-.23v-1.81c.19.09.41.16.67.23.25.06.51.11.76.14.26.03.47.05.65.05.44,0,.76-.07.97-.2s.31-.35.31-.65c0-.28-.07-.48-.22-.61-.14-.12-.42-.19-.82-.19H0v-1.03L.2.12h5l-.16,1.73h-2.92l-.07,1.1h.88c.94,0,1.63.21,2.08.62.45.42.67,1.02.67,1.82s-.27,1.39-.8,1.86c-.53.47-1.34.71-2.42.71Z"/>
  <path class="cls-1" d="M9.98,7.97c-.89,0-1.6-.15-2.14-.46-.54-.31-.93-.76-1.18-1.35-.25-.59-.37-1.32-.37-2.17s.12-1.58.37-2.17c.25-.59.64-1.04,1.18-1.35.54-.31,1.25-.46,2.14-.46,1.33,0,2.28.34,2.84,1.03.57.68.85,1.67.85,2.96s-.28,2.26-.85,2.95c-.57.69-1.52,1.03-2.84,1.03ZM9.98,6.05c.52,0,.88-.17,1.09-.52.2-.35.31-.86.31-1.54s-.1-1.2-.31-1.55c-.2-.34-.57-.52-1.09-.52s-.88.17-1.09.52c-.2.34-.31.86-.31,1.55s.1,1.19.31,1.54c.2.35.57.52,1.09.52Z"/>
</svg>